<?xml version="1.0" encoding="UTF-8" standalone="no"?>
<svg
   xmlns:dc="http://purl.org/dc/elements/1.1/"
   xmlns:cc="http://creativecommons.org/ns#"
   xmlns:rdf="http://www.w3.org/1999/02/22-rdf-syntax-ns#"
   xmlns:svg="http://www.w3.org/2000/svg"
   xmlns="http://www.w3.org/2000/svg"
   xmlns:sodipodi="http://sodipodi.sourceforge.net/DTD/sodipodi-0.dtd"
   xmlns:inkscape="http://www.inkscape.org/namespaces/inkscape"
   width="1000.537"
   height="476.061"
   id="svg5302"
   version="1.1"
   inkscape:version="0.91 r13725"
   sodipodi:docname="CNN.svg">
  <metadata
     id="metadata5316">
    <rdf:RDF>
      <cc:Work
         rdf:about="">
        <dc:format>image/svg+xml</dc:format>
        <dc:type
           rdf:resource="http://purl.org/dc/dcmitype/StillImage" />
        <dc:title></dc:title>
      </cc:Work>
    </rdf:RDF>
  </metadata>
  <defs
     id="defs5314" />
  <sodipodi:namedview
     pagecolor="#ffffff"
     bordercolor="#666666"
     borderopacity="1"
     objecttolerance="10"
     gridtolerance="10"
     guidetolerance="10"
     inkscape:pageopacity="0"
     inkscape:pageshadow="2"
     inkscape:window-width="1366"
     inkscape:window-height="705"
     id="namedview5312"
     showgrid="false"
     inkscape:zoom="0.25"
     inkscape:cx="1382.8172"
     inkscape:cy="322.88775"
     inkscape:window-x="-8"
     inkscape:window-y="-8"
     inkscape:window-maximized="1"
     inkscape:current-layer="svg5302" />
  <g
     id="g5304"
     transform="matrix(1.0491648,0,0,1.0491648,-5.491706e-4,0.0500489)">
    <title
       id="title5306">Layer 1</title>
    <g
       id="svg_1">
      <path
         id="svg_22"
         d="m 304.888,321.102 c 8.723,0 14.714,-7.115 14.671,-15.137 l 0,-222.859 c 0,-83.353 106.488,-123.33 162.845,-26.551 57.526,98.829 90.484,156.131 90.484,156.131 l 0,-129.542 c 0.043,-83.31 106.327,-123.326 162.646,-26.508 57.564,98.829 91.331,156.089 91.331,156.089 l 0,-211 126.786,0 0,369.521 c 0.283,95.051 -111.108,110.025 -157.137,33.972 -27.092,-44.803 -96.033,-159.067 -96.033,-159.067 l 0,125.058 c 0.28,95.028 -111.106,109.985 -157.135,33.909 C 516.292,360.376 447.35,246.071 447.35,246.071 l 0,113.077 c 0.042,57.827 -33.927,89.202 -86.828,89.164 l -122.925,0 C -76.998,448.108 -79.971,1.685 233.376,1.724 l 69.865,0 0,126.484 c 0,0 -19.938,-0.081 -76.98,0 -128.312,0.181 -141.781,193.074 8.964,192.894 l 69.663,0 z"
         inkscape:connector-curvature="0"
         style="fill:black" />
      <path
         id="svg_23"
         d="m 883.185,1.743 0,361.325 c 0,7.458 -2.774,12.802 -7.479,14.29 -4.341,1.369 -9.245,-0.864 -12.582,-5.649 C 861.838,369.662 714.149,133.131 677.088,72.576 669.931,62.284 658.073,57.882 647.419,61.298 636.285,64.815 629.41,75.429 629.453,89.018 l 0,274.01 c 0,7.499 -2.653,12.843 -7.319,14.293 -4.139,1.304 -8.803,-0.867 -12.181,-5.649 C 608.67,369.582 460.978,133.095 423.996,72.496 416.76,62.204 404.942,57.802 394.209,61.217 383.115,64.757 376.2,75.348 376.28,88.975 l 0,272.285 c 0,8.522 -7.233,15.738 -15.836,15.738 l -131.489,0 C 119.896,376.998 70.13,298.37 70.09,225.289 70.049,149.392 122.71,72.532 223.526,72.371 l 79.714,0 0,-14.189 -79.753,0 C 113.383,58.343 55.819,142.358 55.9,225.287 c 0.081,79.916 54.267,165.898 173.054,165.898 l 131.489,0 c 16.521,0 30.028,-13.426 30.028,-29.927 l 0,-272.322 c -0.041,-7.258 2.975,-12.563 8.039,-14.17 4.823,-1.527 10.169,0.662 13.586,5.526 36.781,60.259 184.511,296.826 186.037,299.198 7.117,10.25 18.174,14.57 28.341,11.375 8.365,-2.693 17.248,-11.375 17.205,-27.878 l 0,-273.97 c 0,-7.299 2.977,-12.605 8.002,-14.213 4.823,-1.527 10.129,0.705 13.544,5.568 36.824,60.259 184.553,296.824 186.038,299.196 7.158,10.253 18.411,14.594 28.745,11.297 8.4,-2.653 17.445,-11.375 17.407,-27.797 l 0,-361.325 -14.23,0 z"
         inkscape:connector-curvature="0"
         style="fill:#222222" />
      <path
         id="svg_24"
         d="m 883.185,1.743 0,361.325 c 0,7.458 -2.774,12.802 -7.479,14.29 -4.341,1.369 -9.245,-0.864 -12.582,-5.649 C 861.838,369.662 714.149,133.131 677.088,72.576 669.931,62.284 658.073,57.882 647.419,61.298 636.285,64.815 629.41,75.429 629.453,89.018 l 0,274.01 c 0,7.499 -2.653,12.843 -7.319,14.293 -4.139,1.304 -8.803,-0.867 -12.181,-5.649 C 608.67,369.582 460.978,133.095 423.996,72.496 416.76,62.204 404.942,57.802 394.209,61.217 383.115,64.757 376.2,75.348 376.28,88.975 l 0,272.285 c 0,8.522 -7.233,15.738 -15.836,15.738 l -131.489,0 C 119.896,376.998 70.13,298.37 70.09,225.289 70.049,149.392 122.71,72.532 223.526,72.371 l 79.714,0 0,-14.189 -79.753,0 C 113.383,58.343 55.819,142.358 55.9,225.287 c 0.081,79.916 54.267,165.898 173.054,165.898 l 131.489,0 c 16.521,0 30.028,-13.426 30.028,-29.927 l 0,-272.322 c -0.041,-7.258 2.975,-12.563 8.039,-14.17 4.823,-1.527 10.169,0.662 13.586,5.526 36.781,60.259 184.511,296.826 186.037,299.198 7.117,10.25 18.174,14.57 28.341,11.375 8.365,-2.693 17.248,-11.375 17.205,-27.878 l 0,-273.97 c 0,-7.299 2.977,-12.605 8.002,-14.213 4.823,-1.527 10.129,0.705 13.544,5.568 36.824,60.259 184.553,296.824 186.038,299.196 7.158,10.253 18.411,14.594 28.745,11.297 8.4,-2.653 17.445,-11.375 17.407,-27.797 l 0,-361.325 -14.23,0 z"
         inkscape:connector-curvature="0"
         style="fill:#222222;stroke:#222222;stroke-width:3.58119988" />
    </g>
  </g>
</svg>
